<?xml version="1.0" standalone="no"?>
<!DOCTYPE svg PUBLIC "-//W3C//DTD SVG 20010904//EN"
 "http://www.w3.org/TR/2001/REC-SVG-20010904/DTD/svg10.dtd">
<svg version="1.0" xmlns="http://www.w3.org/2000/svg"
 width="1200.000000pt" height="1200.000000pt" viewBox="0 0 1200.000000 1200.000000"
 preserveAspectRatio="xMidYMid meet">
<metadata>
Created by potrace 1.14, written by Peter Selinger 2001-2017
</metadata>
<g transform="translate(0.000000,1200.000000) scale(0.100000,-0.100000)"
fill="#000000" stroke="none">
<path d="M5758 11725 c-2 -2 -39 -6 -83 -9 -119 -9 -197 -16 -225 -21 -14 -2
-54 -7 -90 -10 -35 -4 -67 -8 -70 -10 -3 -2 -34 -6 -70 -10 -35 -3 -67 -8 -70
-10 -3 -1 -27 -6 -54 -9 -27 -4 -53 -9 -57 -11 -4 -3 -22 -7 -40 -9 -29 -4
-246 -50 -289 -61 -40 -11 -92 -25 -160 -43 -378 -102 -829 -283 -1185 -477
-278 -151 -640 -386 -810 -527 -11 -9 -40 -33 -65 -53 -173 -139 -292 -246
-460 -415 -152 -152 -286 -298 -366 -399 -10 -13 -33 -40 -50 -60 -51 -60
-229 -303 -302 -413 -192 -290 -371 -621 -491 -908 -29 -69 -59 -138 -66 -155
-37 -85 -152 -416 -156 -450 -1 -5 -6 -21 -11 -35 -31 -78 -137 -526 -153
-645 -2 -11 -8 -49 -13 -85 -6 -36 -14 -85 -17 -110 -3 -25 -8 -56 -10 -70 -2
-14 -7 -56 -11 -95 -3 -38 -8 -77 -9 -87 -12 -61 -20 -298 -19 -558 0 -269 4
-374 20 -525 2 -22 6 -65 9 -95 3 -30 9 -73 12 -95 3 -22 7 -49 8 -60 4 -27
27 -177 30 -190 1 -5 5 -28 9 -50 80 -430 209 -851 386 -1260 62 -143 208
-434 262 -524 21 -34 38 -65 38 -66 0 -7 188 -306 207 -330 4 -6 28 -39 52
-75 44 -64 239 -320 283 -372 13 -14 30 -35 38 -45 113 -135 406 -437 532
-548 174 -154 238 -206 423 -344 443 -331 885 -569 1460 -788 122 -46 503
-161 595 -179 13 -3 60 -14 105 -24 244 -57 563 -104 860 -127 191 -15 801 -7
925 12 14 2 59 7 100 10 41 4 84 9 95 11 11 2 40 6 65 9 25 3 74 10 110 15 56
9 96 16 240 45 14 3 39 8 55 10 258 45 829 230 1113 361 41 19 76 34 78 34 5
0 330 162 367 183 12 7 27 18 35 25 7 6 18 12 23 12 5 0 39 18 75 40 36 22 68
40 70 40 3 0 17 8 32 19 15 10 88 58 162 106 74 48 137 91 138 96 2 5 8 9 13
9 6 0 47 28 92 62 92 69 259 200 267 208 3 3 34 30 69 60 215 183 488 460 676
685 94 112 281 363 351 470 33 50 61 92 64 95 3 3 35 55 72 115 280 467 482
930 623 1430 20 72 38 137 40 145 2 8 15 65 29 125 14 61 28 126 31 145 3 19
8 42 10 50 5 16 32 170 40 225 3 19 7 51 10 70 8 56 13 96 20 160 4 33 8 74
10 90 28 247 28 853 0 1090 -2 16 -7 59 -11 95 -8 77 -8 79 -18 150 -13 93
-17 120 -42 257 -8 45 -36 178 -53 258 -14 60 -57 222 -77 286 -8 25 -16 54
-18 65 -9 45 -113 341 -167 475 -105 260 -257 569 -387 787 -18 29 -32 57 -32
62 0 4 -4 10 -8 12 -7 2 -42 55 -97 146 -59 97 -332 466 -390 528 -5 6 -28 32
-50 59 -119 141 -411 439 -539 550 -39 33 -77 67 -85 75 -9 8 -61 51 -116 96
-464 374 -952 660 -1500 879 -299 120 -714 243 -980 291 -16 3 -73 14 -125 24
-52 10 -122 22 -155 25 -33 4 -63 9 -66 11 -3 1 -37 6 -75 9 -38 3 -76 8 -84
10 -8 2 -49 7 -90 10 -41 3 -97 8 -125 12 -52 5 -732 13 -737 8z m632 -1389
c58 -4 116 -9 130 -11 73 -10 110 -15 159 -21 30 -3 63 -8 75 -10 12 -3 39 -7
60 -10 22 -3 43 -7 46 -9 4 -2 29 -7 56 -11 161 -21 582 -148 818 -245 121
-50 391 -181 498 -242 221 -126 511 -332 718 -511 91 -80 378 -374 454 -466
43 -52 86 -104 95 -115 36 -44 172 -235 226 -318 256 -395 459 -863 573 -1322
32 -126 67 -306 77 -390 4 -27 8 -57 10 -65 4 -13 9 -53 21 -165 28 -274 24
-670 -11 -947 -96 -763 -376 -1462 -833 -2078 -47 -63 -88 -117 -91 -120 -4
-3 -26 -30 -51 -60 -86 -105 -105 -126 -275 -295 -180 -181 -291 -278 -470
-411 -282 -209 -590 -385 -930 -529 -62 -27 -221 -87 -235 -90 -8 -2 -42 -12
-75 -24 -167 -58 -538 -147 -694 -166 -30 -4 -62 -8 -71 -10 -208 -40 -841
-52 -1030 -20 -14 3 -47 7 -75 10 -65 8 -107 13 -180 25 -57 9 -75 13 -135 25
-14 2 -41 7 -60 10 -19 4 -102 24 -185 45 -638 166 -1183 444 -1705 870 -110
91 -363 335 -476 460 -130 145 -390 498 -460 625 -24 44 -54 96 -77 132 -24
39 -149 291 -185 373 -168 384 -296 852 -337 1240 -3 30 -8 69 -10 86 -24 176
-24 618 0 849 7 69 15 139 19 165 2 14 7 47 11 73 4 27 9 59 11 70 3 12 7 33
9 47 13 83 69 326 84 370 5 14 17 52 26 85 164 574 478 1145 893 1625 81 94
335 346 422 420 41 35 77 66 80 70 10 13 218 169 310 232 485 334 1071 578
1650 687 58 11 125 23 150 26 25 3 56 8 70 10 24 5 60 9 161 20 24 3 98 8 164
11 66 4 121 7 122 8 6 5 359 -2 453 -8z"/>
<path d="M4117 8004 c-1 -1 -108 -5 -237 -9 -129 -3 -318 -8 -420 -11 -102 -3
-354 -6 -561 -8 -207 -2 -381 -6 -386 -9 -11 -7 -17 -110 -8 -137 4 -14 27
-16 148 -18 335 -3 434 -35 518 -169 49 -78 49 -61 49 -1677 0 -1116 -3 -1519
-12 -1547 -31 -104 -165 -196 -368 -252 -52 -14 -113 -29 -135 -31 -22 -3 -76
-10 -120 -16 -45 -6 -109 -11 -144 -11 -53 -1 -64 -4 -70 -21 -6 -16 -7 -71
-2 -126 1 -10 242 -12 1279 -9 702 1 1286 5 1297 9 11 3 40 9 65 12 280 42
528 127 719 244 61 37 66 38 110 29 100 -22 186 -11 326 39 72 26 158 55 193
66 50 16 70 29 100 65 20 24 58 58 84 74 26 17 62 47 80 67 19 20 52 50 73 66
22 17 42 32 45 36 3 3 40 32 83 64 61 46 87 75 122 133 25 40 45 76 45 80 0 3
23 38 51 77 28 39 63 94 79 123 16 28 43 61 61 73 l31 23 -6 -154 c-3 -85 -8
-215 -11 -289 -3 -74 -8 -176 -9 -227 -3 -65 0 -95 8 -102 20 -17 145 -77 226
-109 156 -62 384 -119 545 -138 22 -2 54 -6 70 -9 126 -19 500 -25 645 -11
550 54 947 283 1117 646 79 168 103 291 98 500 -9 423 -163 677 -570 943 -118
76 -186 112 -675 350 -240 117 -342 201 -405 332 -30 62 -36 87 -42 168 -5 79
-3 105 16 165 43 142 154 248 320 302 87 29 287 22 402 -13 l87 -27 8 -47 c4
-27 9 -55 10 -63 5 -34 12 -78 19 -125 4 -27 9 -61 11 -75 2 -14 7 -41 9 -60
3 -19 7 -44 10 -55 2 -11 7 -42 10 -70 7 -56 10 -75 20 -125 l6 -35 281 2
c154 1 281 3 283 5 2 2 6 50 9 108 4 58 8 137 11 175 3 39 7 106 10 150 2 44
7 118 11 165 11 168 11 180 0 189 -31 25 -179 95 -274 130 -177 65 -392 113
-582 129 -110 9 -373 8 -474 -2 -76 -7 -89 -9 -146 -21 -14 -2 -41 -7 -60 -10
-50 -9 -175 -43 -245 -67 -168 -58 -335 -163 -449 -282 -63 -65 -166 -214
-166 -239 0 -9 -4 -18 -9 -22 -8 -4 -49 -122 -57 -160 -22 -110 -26 -160 -25
-263 0 -68 3 -135 5 -150 2 -15 7 -47 11 -72 20 -134 97 -328 165 -417 16 -21
44 -57 62 -81 91 -119 257 -253 463 -374 55 -32 111 -65 125 -73 28 -17 75
-40 362 -178 218 -105 291 -150 356 -217 77 -79 111 -164 119 -300 14 -243
-105 -418 -328 -480 -64 -17 -95 -20 -229 -16 -169 5 -196 8 -315 37 -149 37
-142 32 -150 97 -4 31 -9 65 -12 77 -4 21 -40 243 -48 305 -3 19 -10 60 -15
90 -5 30 -12 73 -15 95 -3 22 -8 46 -10 53 -3 9 -67 12 -273 12 -248 0 -271 1
-307 20 -22 11 -46 20 -55 20 -8 0 -68 -69 -134 -154 -118 -154 -120 -156
-404 -401 -13 -11 -43 -33 -67 -50 -24 -16 -95 -67 -159 -112 -116 -84 -262
-153 -349 -166 -40 -6 -40 -6 -3 48 61 88 140 247 151 306 2 11 7 24 10 30 17
26 44 247 43 348 -2 229 -62 412 -196 601 -98 139 -303 316 -502 435 -113 67
-109 59 -45 89 139 63 320 215 399 334 57 87 101 191 116 270 14 80 11 239 -6
312 -13 52 -12 56 8 73 42 35 319 197 365 212 145 50 275 31 408 -59 47 -32
135 -125 135 -143 0 -7 4 -13 10 -13 24 0 40 -139 26 -228 -15 -93 -15 -150
-2 -187 8 -22 18 -40 23 -40 4 0 42 11 84 24 l76 23 42 92 c39 83 42 96 37
147 -10 101 -32 174 -82 268 -40 76 -66 109 -145 186 -80 78 -111 101 -190
139 -142 69 -197 84 -303 84 -102 0 -173 -18 -271 -70 -62 -33 -96 -57 -235
-170 -45 -38 -85 -68 -88 -68 -4 0 -18 16 -30 34 -66 97 -232 229 -362 288
-105 48 -316 112 -437 132 -47 8 -143 23 -203 31 -91 12 -241 18 -483 19 -153
1 -279 1 -280 0z m478 -257 c104 -15 138 -22 207 -44 259 -82 388 -297 389
-652 0 -98 -6 -143 -28 -221 -46 -164 -173 -316 -324 -388 -124 -59 -159 -64
-480 -68 -267 -3 -288 -2 -303 15 -15 16 -16 77 -16 628 0 353 3 621 9 635 16
42 104 84 202 97 54 7 288 5 344 -2z m0 -1650 c11 -2 34 -7 50 -10 17 -4 41
-9 54 -12 102 -19 260 -88 344 -151 48 -35 49 -37 43 -77 -13 -95 -18 -124
-25 -157 -12 -56 1 -498 15 -521 2 -4 6 -24 10 -45 19 -122 42 -198 131 -416
l55 -137 -27 -48 c-40 -68 -160 -183 -230 -219 -81 -43 -176 -72 -260 -82 -81
-9 -246 8 -315 33 -203 71 -349 210 -386 365 -12 54 -13 1462 0 1479 9 11 56
12 266 7 140 -3 264 -7 275 -9z m738 -563 c22 -63 36 -118 53 -214 17 -99 9
-366 -15 -455 -7 -28 -10 -23 -39 65 -17 52 -36 115 -41 140 -5 25 -13 59 -17
75 -9 38 -16 494 -8 507 9 14 38 -38 67 -118z"/>
</g>
</svg>
